<svg width="32" height="32" viewBox="0 0 32 32" fill="none" xmlns="http://www.w3.org/2000/svg">
<path fill-rule="evenodd" clip-rule="evenodd" d="M1.79998 15.1667C1.79998 10.7149 6.47468 6.80001 12.6666 6.80001C18.8586 6.80001 23.5333 10.7149 23.5333 15.1667C23.5333 19.6185 18.8586 23.5333 12.6666 23.5333C12.2894 23.5333 11.9169 23.5185 11.5499 23.4895C11.1145 23.4552 10.6897 23.6128 10.3815 23.9117C9.10111 25.1536 7.81296 25.7658 6.85745 26.0691C6.80691 26.0851 6.7573 26.1003 6.70865 26.1146C6.7933 25.9136 6.87837 25.7014 6.95842 25.4854C7.15244 24.9621 7.33638 24.3667 7.39416 23.8403C7.42283 23.5791 7.42755 23.2775 7.34996 22.9893C7.26796 22.6847 7.07722 22.3473 6.69612 22.1534C6.372 21.9884 6.06042 21.8107 5.76253 21.6213C3.2926 20.0511 1.79998 17.7109 1.79998 15.1667ZM4.6264 26.7921L4.62573 26.7934L4.62571 26.7935L4.62569 26.7935C4.49492 27.0415 4.50348 27.3398 4.64826 27.5798C4.79305 27.8199 5.05295 27.9667 5.33332 27.9667V27.1667C5.33332 27.9667 5.33369 27.9667 5.33409 27.9667L5.33492 27.9667L5.33679 27.9667L5.34133 27.9666L5.35354 27.9665C5.36305 27.9664 5.37533 27.9661 5.39026 27.9656C5.42012 27.9647 5.46065 27.963 5.51111 27.9599C5.61201 27.9535 5.75284 27.9412 5.92773 27.9176C6.27729 27.8703 6.76444 27.7772 7.34147 27.5941C8.49014 27.2295 9.99255 26.5084 11.4668 25.0879C11.8618 25.118 12.2621 25.1333 12.6666 25.1333C14.3802 25.1333 16.0333 24.8521 17.5447 24.3384C18.4415 24.5181 19.3793 24.6133 20.3438 24.6133C20.4704 24.6133 20.5966 24.6116 20.7223 24.6084C20.7922 24.6066 20.8501 24.6292 20.89 24.6623C22.1111 25.6763 24.1029 27.2144 26.5247 27.1396C26.7966 27.1312 27.0455 26.9853 27.1857 26.7521C27.3257 26.5191 27.3378 26.2308 27.2178 25.9868L27.2178 25.9867L27.2177 25.9867L27.2177 25.9866L27.2173 25.9859L27.2148 25.9807L27.2035 25.9573C27.1933 25.9361 27.178 25.9041 27.1586 25.8626C27.1198 25.7795 27.0647 25.659 27.0011 25.5126C26.873 25.2177 26.7145 24.8271 26.5846 24.4294C26.4508 24.0196 26.365 23.6542 26.351 23.3938C26.3489 23.3556 26.3485 23.3242 26.3489 23.2987C26.7102 23.1013 27.2179 22.7889 27.4712 22.6279C30.0589 20.9828 31.8 18.4064 31.8 15.4406C31.8 10.2057 26.4804 6.26788 20.3438 6.26788C19.7402 6.26788 19.1471 6.30515 18.568 6.37709L18.5694 6.38802C16.7946 5.6264 14.7765 5.20001 12.6666 5.20001C5.97197 5.20001 0.199982 9.49325 0.199982 15.1667C0.199982 18.3819 2.08746 21.1809 4.9041 22.9716C5.19701 23.1578 5.50036 23.3335 5.81324 23.498C5.8137 23.539 5.81157 23.5942 5.80372 23.6657C5.76776 23.9933 5.63919 24.4411 5.45821 24.9292C5.28161 25.4056 5.07327 25.8727 4.907 26.2243C4.82432 26.3991 4.75308 26.5431 4.70286 26.6428C4.67777 26.6926 4.65798 26.7312 4.64471 26.7569L4.62986 26.7855L4.6264 26.7921ZM21.2009 7.89566C23.6015 9.68754 25.1333 12.244 25.1333 15.1667C25.1333 18.4184 23.2372 21.2168 20.3579 23.0133C20.466 23.0132 20.5736 23.0117 20.6808 23.0089C21.12 22.9975 21.5603 23.1392 21.9122 23.4314C22.853 24.2127 23.9762 25.048 25.2249 25.3865C25.1697 25.2381 25.115 25.0833 25.0636 24.9259C24.9166 24.4755 24.7787 23.9515 24.7533 23.4797C24.7323 23.0897 24.7691 22.3106 25.4705 21.9537C25.749 21.8119 26.3202 21.4637 26.6128 21.2777C28.8537 19.853 30.2 17.7353 30.2 15.4406C30.2 11.6335 26.4005 8.23492 21.2009 7.89566ZM26.3593 23.205C26.3587 23.2043 26.3564 23.2102 26.3541 23.2248C26.3587 23.2131 26.3598 23.2058 26.3593 23.205Z" fill="black"/>
</svg>
