<svg width="32" height="32" viewBox="0 0 32 32" fill="none" xmlns="http://www.w3.org/2000/svg">
<path d="M16.0001 27.7643C16.3026 27.7643 16.5926 27.7391 16.9077 27.7139L17.5884 29.0122C17.7144 29.2895 18.0043 29.4408 18.3447 29.3904C18.6598 29.34 18.8741 29.1005 18.9245 28.7727L19.1262 27.3357C19.706 27.1845 20.2733 26.9576 20.8405 26.7181L21.8993 27.6761C22.1262 27.903 22.4413 27.9408 22.7565 27.7769C23.0212 27.6131 23.1346 27.3231 23.0716 26.9954L22.7817 25.5836C23.2607 25.2433 23.7397 24.8525 24.1808 24.424L25.4918 24.9786C25.8069 25.1046 26.0968 25.0416 26.3363 24.7517C26.5506 24.5248 26.5758 24.1971 26.3994 23.9197L25.6304 22.6971C25.9708 22.2054 26.2607 21.676 26.5254 21.1214L27.975 21.1844C28.3027 21.2096 28.58 21.0206 28.6809 20.718C28.7817 20.4029 28.6935 20.1004 28.4288 19.8987L27.2943 19.0037C27.4456 18.4365 27.5716 17.8315 27.6221 17.2138L28.9834 16.7726C29.2985 16.6592 29.5002 16.4197 29.5002 16.092C29.5002 15.7642 29.2985 15.5247 28.9834 15.4113L27.6221 14.9701C27.5716 14.3524 27.4456 13.76 27.2943 13.1802L28.4288 12.2852C28.6809 12.0835 28.7817 11.7936 28.6809 11.4785C28.58 11.1759 28.3027 10.9869 27.975 11.0121L26.5254 11.0625C26.2607 10.5079 25.9708 9.99106 25.6304 9.48686L26.3994 8.26416C26.5758 7.99945 26.5506 7.67172 26.3363 7.44482C26.0968 7.16751 25.8069 7.09188 25.4918 7.21793L24.1808 7.75995C23.7397 7.34398 23.2607 6.94062 22.7817 6.60028L23.0716 5.20111C23.1346 4.86077 23.0212 4.57085 22.7565 4.41959C22.4413 4.25572 22.1388 4.28093 21.8993 4.52043L20.8405 5.46581C20.2733 5.21371 19.706 5.01203 19.1262 4.84816L18.9245 3.42378C18.8741 3.09605 18.6598 2.86915 18.3447 2.80613C18.0043 2.76831 17.7144 2.90697 17.5884 3.17168L16.9077 4.47001C16.5926 4.4448 16.3026 4.43219 16.0001 4.43219C15.685 4.43219 15.4077 4.4448 15.0799 4.47001L14.4119 3.17168C14.2732 2.90697 13.9833 2.76831 13.6429 2.80613C13.3278 2.86915 13.1135 3.09605 13.0631 3.42378L12.8614 4.84816C12.2816 5.01203 11.7144 5.21371 11.1597 5.46581L10.1009 4.52043C9.8488 4.28093 9.54628 4.25572 9.24375 4.41959C8.96644 4.57085 8.85299 4.86077 8.91602 5.20111L9.21854 6.60028C8.72694 6.94062 8.24795 7.34398 7.81937 7.75995L6.49583 7.21793C6.1807 7.09188 5.89078 7.16751 5.65129 7.44482C5.4496 7.67172 5.42439 7.99945 5.58826 8.25155L6.35717 9.48686C6.01684 9.99106 5.73952 10.5079 5.46221 11.0625L4.01262 11.0121C3.69749 10.9869 3.42018 11.1759 3.30673 11.4785C3.20589 11.7936 3.29412 12.0835 3.55883 12.2852L4.6933 13.1802C4.54203 13.76 4.41598 14.3524 4.37817 14.9701L3.00421 15.4113C2.68908 15.5121 2.5 15.7516 2.5 16.092C2.5 16.4323 2.68908 16.6718 3.00421 16.7726L4.37817 17.2138C4.41598 17.8315 4.54203 18.4365 4.6933 19.0037L3.55883 19.8987C3.30673 20.1004 3.21849 20.4029 3.30673 20.718C3.42018 21.0206 3.69749 21.2096 4.01262 21.1844L5.46221 21.1214C5.72692 21.676 6.01684 22.2054 6.35717 22.6971L5.58826 23.9197C5.41179 24.1971 5.437 24.5248 5.65129 24.7517C5.89078 25.0416 6.1807 25.1046 6.49583 24.9786L7.81937 24.424C8.24795 24.8525 8.72694 25.2433 9.21854 25.5836L8.91602 26.9954C8.85299 27.3231 8.96644 27.6131 9.24375 27.7769C9.54628 27.9408 9.8614 27.903 10.1009 27.6761L11.1471 26.7181C11.7144 26.9576 12.2816 27.1845 12.8614 27.3357L13.0631 28.7727C13.1135 29.1005 13.3278 29.34 13.6556 29.3904C13.9833 29.4408 14.2732 29.2895 14.4119 29.0122L15.0799 27.7139C15.3951 27.7391 15.685 27.7643 16.0001 27.7643ZM19.0379 15.2726C18.4707 13.76 17.3363 12.9281 15.9623 12.9281C15.748 12.9281 15.5211 12.9533 15.143 13.0415L11.79 7.30617C13.0505 6.68851 14.4749 6.34817 16.0001 6.34817C21.143 6.34817 25.1767 10.2432 25.58 15.2726H19.0379ZM6.38238 16.1046C6.38238 12.8272 7.92021 9.94064 10.3278 8.17592L13.706 13.9491C13.0757 14.6298 12.7732 15.3609 12.7732 16.1424C12.7732 16.8987 13.0505 17.592 13.706 18.2979L10.2522 23.9576C7.8824 22.1928 6.38238 19.3441 6.38238 16.1046ZM14.5253 16.1298C14.5253 15.323 15.2186 14.6928 15.9749 14.6928C16.7816 14.6928 17.4497 15.323 17.4497 16.1298C17.4497 16.9239 16.7816 17.5794 15.9749 17.5794C15.2186 17.5794 14.5253 16.9239 14.5253 16.1298ZM16.0001 25.8483C14.4371 25.8483 12.9875 25.4954 11.7018 24.8525L15.143 19.2306C15.5085 19.3189 15.748 19.3441 15.9623 19.3441C17.3489 19.3441 18.4833 18.4869 19.0379 16.9491H25.58C25.1767 21.9533 21.143 25.8483 16.0001 25.8483Z" fill="black"/>
</svg>
